<svg width="52" height="52" viewBox="0 0 52 52" fill="none" xmlns="http://www.w3.org/2000/svg">
<path d="M52 26.0008C52 11.6412 40.3588 0 26.0008 0C11.6427 0 0 11.6412 0 26.0008C0 40.3603 11.6412 52 26.0008 52C40.3603 52 52 40.3588 52 26.0008Z" fill="#FBDD00"/>
<path d="M6.8132 36.8869L4.24701 22.3316L6.7394 21.8918C8.98633 21.4958 10.7679 21.8015 12.0871 22.8105C13.4064 23.818 14.2814 25.5484 14.7136 28.0016C14.9741 29.4775 14.9892 30.7485 14.7603 31.8178C14.5298 32.887 14.0404 33.8222 13.2904 34.6264C12.8477 35.1083 12.3176 35.4893 11.6986 35.771C11.0796 36.0526 10.1791 36.2965 8.99536 36.5044L6.81169 36.8884L6.8132 36.8869ZM9.20921 33.6882L9.43812 33.6475C10.4682 33.4653 11.1881 32.9397 11.5962 32.0693C12.0058 31.1988 12.0796 30.0256 11.8191 28.5498C11.5405 26.9685 11.0676 25.839 10.4035 25.1643C9.74082 24.4897 8.86284 24.2487 7.77251 24.4415L7.58275 24.4746L9.20771 33.6867L9.20921 33.6882Z" fill="black"/>
<path d="M17.8006 34.9489L15.2344 20.3921L18.0656 19.8921C19.9662 19.5563 21.3637 19.6166 22.2553 20.0729C23.1483 20.5277 23.7176 21.4539 23.963 22.8514C24.1031 23.642 24.0669 24.3197 23.8591 24.8845C23.6513 25.4492 23.2582 25.9402 22.6799 26.3573C23.4284 26.4853 24.0188 26.791 24.4495 27.2745C24.8802 27.7564 25.1738 28.4401 25.3305 29.3241C25.4464 29.9822 25.4419 30.5982 25.3169 31.1719C25.1919 31.7457 24.9525 32.2562 24.6001 32.702C24.2462 33.1418 23.7883 33.4912 23.2281 33.7502C22.6679 34.0092 21.7553 34.2517 20.4933 34.4746L17.8006 34.9489ZM19.1108 25.9387L19.421 25.8829C20.165 25.7519 20.686 25.5095 20.9842 25.1556C21.2824 24.8016 21.3758 24.3197 21.2673 23.7068C21.1544 23.0622 20.8908 22.6195 20.4827 22.3755C20.0731 22.133 19.4963 22.0773 18.7523 22.2083L18.4632 22.2596L19.1123 25.9387H19.1108ZM20.1559 31.8617C20.2026 31.8542 20.2719 31.8451 20.3622 31.8361C20.4541 31.8255 20.5234 31.818 20.5686 31.809C21.3125 31.678 21.826 31.434 22.1092 31.0741C22.3923 30.7156 22.4766 30.2111 22.3607 29.559C22.2372 28.8603 21.9797 28.3934 21.5881 28.154C21.1966 27.9145 20.6122 27.8633 19.8336 28.0003L19.4843 28.0621L20.1544 31.8617H20.1559Z" fill="black"/>
<path d="M29.1285 32.9525L27.0367 21.0884L24.8138 21.4799L24.3395 18.7887L31.7067 17.4891L32.1811 20.1818L29.9583 20.5733L32.0501 32.4374L29.1285 32.9525Z" fill="black"/>
<path d="M34.9889 31.9189L33.8474 17.1106L37.5867 16.4509L39.3231 21.871C39.5852 22.6962 39.8231 23.4869 40.0355 24.2489C40.2493 25.0094 40.4436 25.7519 40.6183 26.4747C40.5114 25.1706 40.4346 24.1405 40.3864 23.3845C40.3397 22.6285 40.3111 22.0667 40.3005 21.6978L40.2584 15.9796L43.957 15.3275L47.7506 29.6674L44.8094 30.1855L43.308 23.4793C43.2733 23.3212 43.2206 23.0833 43.1513 22.767C42.7538 21.0156 42.4541 19.5728 42.2553 18.4433L42.4465 30.6026L40.3427 30.9746L36.4588 19.3846C36.6335 20.3755 36.8232 21.8017 37.028 23.6631C37.0762 24.0878 37.1109 24.4025 37.1334 24.6118L37.8699 31.4113L34.9889 31.9189Z" fill="black"/>
</svg>
